# xmcd
#
# Track frame offsets:
#	150
#	17761
#	33695
#	50130
#	66597
#	82191
#	97867
#	115638
#	129180
#	149086
#	165440
#	183626
#	201897
#	220853
#	241537
#	260293
#	279409
#	298560
#	314474
#	335316
#
# Disc length: 4696 seconds
#
# Revision: 1
# Processed by: cddbd v1.5PL3 Copyright (c) Steve Scherf et al.
# Submitted via: audiograbber 1.80
#
DISCID=2a125614
DTITLE=Zezé di Camargo e Luciano - Sucessos de Todas as Épocas
DYEAR=1900
DGENRE=
TTITLE0=Pra Mudar a minha vida
TTITLE1=Nosso amor é ouro
TTITLE2=Deu ocupado de novo
TTITLE3=Pra sempre
TTITLE4=É o amor
TTITLE5=Quem sou eu sem ela
TTITLE6=Coração está em pedaços
TTITLE7=Muda de vida
TTITLE8=Saudade Bandida
TTITLE9=Andorinha Machucada
TTITLE10=Vem cuidar de mim
TTITLE11=Pão de mel
TTITLE12=Indiferença
TTITLE13=Cada volta é um recomeço
TTITLE14=Dois corações e uma História
TTITLE15=Pare
TTITLE16=Antes de voltar pra casa
TTITLE17=Pra sempre em mim
TTITLE18=Preciso de um tempo
TTITLE19=A ferro e fogo
EXTD=
EXTT0=
EXTT1=
EXTT2=
EXTT3=
EXTT4=
EXTT5=
EXTT6=
EXTT7=
EXTT8=
EXTT9=
EXTT10=
EXTT11=
EXTT12=
EXTT13=
EXTT14=
EXTT15=
EXTT16=
EXTT17=
EXTT18=
EXTT19=
PLAYORDER=
